<?xml version="1.0" encoding="UTF-8"?>
<!DOCTYPE svg PUBLIC "-//W3C//DTD SVG 1.1//EN" "http://www.w3.org/Graphics/SVG/1.1/DTD/svg11.dtd">
<svg xmlns="http://www.w3.org/2000/svg" version="1.1" width="524px" height="168px" style="shape-rendering:geometricPrecision; text-rendering:geometricPrecision; image-rendering:optimizeQuality; fill-rule:evenodd; clip-rule:evenodd" xmlns:xlink="http://www.w3.org/1999/xlink">
<g><path style="opacity:1" fill="#111d25" d="M -0.5,-0.5 C -0.166667,-0.5 0.166667,-0.5 0.5,-0.5C 0.31468,0.170143 -0.0186536,0.170143 -0.5,-0.5 Z"/></g>
<g><path style="opacity:1" fill="#db7d47" d="M 109.5,14.5 C 104.432,17.8771 99.0987,21.0437 93.5,24C 94.4158,24.2784 95.0825,24.7784 95.5,25.5C 92.0613,25.7471 88.728,25.4137 85.5,24.5C 87.8355,21.8352 90.8355,20.5018 94.5,20.5C 94.0073,17.1879 93.0073,14.0212 91.5,11C 91.6135,9.72024 92.2801,8.88691 93.5,8.5C 96.0237,10.1901 98.0237,12.3568 99.5,15C 100.5,15.6667 101.5,15.6667 102.5,15C 104.321,13.2567 106.321,11.7567 108.5,10.5C 110.642,11.4371 110.976,12.7704 109.5,14.5 Z"/></g>
<g><path style="opacity:0.989" fill="#db6650" d="M 109.5,14.5 C 106.997,16.8028 106.33,19.4695 107.5,22.5C 104.312,24.6902 101.145,27.0235 98,29.5C 97.6174,28.944 97.1174,28.6107 96.5,28.5C 96.5,27.8333 96.1667,27.5 95.5,27.5C 95.5,26.8333 95.5,26.1667 95.5,25.5C 95.0825,24.7784 94.4158,24.2784 93.5,24C 99.0987,21.0437 104.432,17.8771 109.5,14.5 Z"/></g>
<g><path style="opacity:1" fill="#d25156" d="M 107.5,22.5 C 111.12,23.5701 112.787,25.7367 112.5,29C 109.859,28.8453 107.193,28.3453 104.5,27.5C 103.833,27.8333 103.167,28.1667 102.5,28.5C 99.4966,39.0379 97.4966,39.0379 96.5,28.5C 97.1174,28.6107 97.6174,28.944 98,29.5C 101.145,27.0235 104.312,24.6902 107.5,22.5 Z"/></g>
<g><path style="opacity:0.592" fill="#613e32" d="M 85.5,24.5 C 88.728,25.4137 92.0613,25.7471 95.5,25.5C 95.5,26.1667 95.5,26.8333 95.5,27.5C 92.7508,27.2739 90.0841,27.6072 87.5,28.5C 85.1592,27.6013 84.4925,26.268 85.5,24.5 Z"/></g>
<g><path style="opacity:1" fill="#4b93a1" d="M 46.5,48.5 C 44.8031,50.3052 43.9698,52.6385 44,55.5C 39.9004,52.7426 35.7337,50.076 31.5,47.5C 32.711,45.5781 34.0443,43.7448 35.5,42C 35.2716,41.6012 34.9382,41.4346 34.5,41.5C 40.7861,35.1951 48.1195,30.6951 56.5,28C 56.9574,28.414 57.2907,28.914 57.5,29.5C 51.7057,34.6216 48.0391,40.9549 46.5,48.5 Z"/></g>
<g><path style="opacity:0.993" fill="#4fa1ad" d="M 96.5,56.5 C 96.5,58.5 96.5,60.5 96.5,62.5C 94.8148,63.1837 93.8148,64.517 93.5,66.5C 92.635,67.5827 91.635,67.7494 90.5,67C 82.8663,62.1793 75.1996,57.346 67.5,52.5C 72.2722,46.213 78.6055,44.0463 86.5,46C 90.7979,48.7924 94.1312,52.2924 96.5,56.5 Z"/></g>
<g><path style="opacity:0.99" fill="#498596" d="M 34.5,41.5 C 34.9382,41.4346 35.2716,41.6012 35.5,42C 34.0443,43.7448 32.711,45.5781 31.5,47.5C 35.7337,50.076 39.9004,52.7426 44,55.5C 43.9698,52.6385 44.8031,50.3052 46.5,48.5C 46.2028,52.9112 47.3694,56.9112 50,60.5C 56.2092,68.2395 64.0425,73.2395 73.5,75.5C 75.1133,77.0879 77.1133,78.0879 79.5,78.5C 79.4226,79.7498 78.756,80.5831 77.5,81C 83.9177,85.7577 90.5844,90.091 97.5,94C 100.188,93.9929 102.688,93.1596 105,91.5C 105.399,91.7284 105.565,92.0618 105.5,92.5C 104.678,94.7279 103.345,95.3946 101.5,94.5C 97.4725,96.845 93.4725,99.1783 89.5,101.5C 87.655,101.078 85.9884,101.912 84.5,104C 83.5,104.667 82.5,104.667 81.5,104C 71.3329,97.9779 61.3329,91.8112 51.5,85.5C 48.5779,81.3994 45.4113,77.3994 42,73.5C 41.6012,73.7284 41.4346,74.0618 41.5,74.5C 38.071,70.5124 34.2376,66.8457 30,63.5C 25.6719,54.9175 27.1719,47.5842 34.5,41.5 Z"/></g>
<g><path style="opacity:0.966" fill="#4c95a3" d="M 96.5,56.5 C 94.1312,52.2924 90.7979,48.7924 86.5,46C 78.6055,44.0463 72.2722,46.213 67.5,52.5C 75.1996,57.346 82.8663,62.1793 90.5,67C 91.635,67.7494 92.635,67.5827 93.5,66.5C 93.8148,64.517 94.8148,63.1837 96.5,62.5C 93.0279,73.6974 85.3613,78.0308 73.5,75.5C 71.5389,73.0365 69.3722,70.7032 67,68.5C 61.9185,57.0718 65.0851,48.9052 76.5,44C 86.8219,42.3272 93.4885,46.4939 96.5,56.5 Z"/></g>
<g><path style="opacity:0.974" fill="#50a8b2" d="M 130.5,78.5 C 128.385,81.7157 125.718,82.2157 122.5,80C 119.922,77.793 117.089,75.9596 114,74.5C 113.838,72.5459 113.671,70.8793 113.5,69.5C 114.644,56.5431 111.977,44.3764 105.5,33C 106.275,31.7705 107.275,31.4372 108.5,32C 118.354,42.5346 125.52,54.7013 130,68.5C 130.498,71.8168 130.665,75.1501 130.5,78.5 Z"/></g>
<g><path style="opacity:0.968" fill="#4c95a3" d="M 113.5,69.5 C 113.671,70.8793 113.838,72.5459 114,74.5C 117.089,75.9596 119.922,77.793 122.5,80C 125.718,82.2157 128.385,81.7157 130.5,78.5C 129.773,80.9538 128.773,83.2872 127.5,85.5C 126.833,85.5 126.5,85.8333 126.5,86.5C 119.828,89.5043 112.828,91.5043 105.5,92.5C 105.565,92.0618 105.399,91.7284 105,91.5C 102.688,93.1596 100.188,93.9929 97.5,94C 90.5844,90.091 83.9177,85.7577 77.5,81C 78.756,80.5831 79.4226,79.7498 79.5,78.5C 89.3749,79.7243 99.0415,78.5577 108.5,75C 110.744,73.5945 112.41,71.7611 113.5,69.5 Z"/></g>
<g><path style="opacity:0.945" fill="#52b1ba" d="M 128.5,88.5 C 129.167,88.5 129.5,88.1667 129.5,87.5C 140.422,78.3346 151.255,78.3346 162,87.5C 164.661,96.1715 161.494,100.005 152.5,99C 148.919,95.6602 148.585,91.9935 151.5,88C 149.842,84.7035 147.175,83.7035 143.5,85C 137.242,89.5609 136.909,94.5609 142.5,100C 150.123,103.727 156.956,108.561 163,114.5C 166.932,123.501 164.432,130.335 155.5,135C 146.494,138.811 137.994,137.977 130,132.5C 129.388,130.763 130.054,129.763 132,129.5C 139.45,134.709 146.783,134.709 154,129.5C 156,126.833 156,124.167 154,121.5C 148.38,116.55 142.213,112.384 135.5,109C 128.172,103.849 125.839,97.016 128.5,88.5 Z"/></g>
<g><path style="opacity:0.88" fill="#52b2bb" d="M 258.5,80.5 C 261.365,80.0548 263.865,80.7215 266,82.5C 272.262,99.7844 278.428,117.118 284.5,134.5C 284.291,135.086 283.957,135.586 283.5,136C 279.833,136.667 276.167,136.667 272.5,136C 271.07,131.209 269.737,126.376 268.5,121.5C 261.8,121.17 255.134,121.503 248.5,122.5C 246.901,126.796 245.401,131.129 244,135.5C 241.833,137 240.333,136.5 239.5,134C 245.452,115.951 251.785,98.1176 258.5,80.5 Z M 257.5,95.5 C 261.52,102.218 264.187,109.551 265.5,117.5C 260.5,117.5 255.5,117.5 250.5,117.5C 252.435,110.029 254.768,102.695 257.5,95.5 Z"/></g>
<g><path style="opacity:0.999" fill="#53b3bc" d="M 376.5,80.5 C 380.514,80.3345 384.514,80.5012 388.5,81C 388.957,81.414 389.291,81.914 389.5,82.5C 388.84,100.363 388.173,118.197 387.5,136C 383.909,136.789 380.409,136.622 377,135.5C 376.82,117.79 376.32,100.123 375.5,82.5C 375.863,81.8165 376.196,81.1499 376.5,80.5 Z"/></g>
<g><path style="opacity:0.924" fill="#53b3bc" d="M 472.5,133.5 C 473.831,125.528 474.498,117.194 474.5,108.5C 474.486,99.7582 474.153,91.0915 473.5,82.5C 482.378,81.1419 491.378,81.3085 500.5,83C 512.502,86.6166 516.335,94.4499 512,106.5C 509.778,109.667 507.278,112.5 504.5,115C 506.864,120.228 509.364,125.394 512,130.5C 512.72,132.112 512.554,133.612 511.5,135C 508.439,135.535 505.439,135.868 502.5,136C 499.477,129.454 496.311,122.954 493,116.5C 490.281,115.556 487.448,115.223 484.5,115.5C 484.415,122.252 484.581,128.919 485,135.5C 481.256,136.626 477.423,136.793 473.5,136C 472.748,135.329 472.414,134.496 472.5,133.5 Z M 484.5,85.5 C 495.336,83.3503 500.669,87.6836 500.5,98.5C 500.669,109.316 495.336,113.65 484.5,111.5C 484.5,102.833 484.5,94.1667 484.5,85.5 Z"/></g>
<g><path style="opacity:0.838" fill="#53b4bd" d="M 185.5,81.5 C 198.171,81.3334 210.838,81.5001 223.5,82C 224.833,83 224.833,84 223.5,85C 218.845,85.4992 214.179,85.6658 209.5,85.5C 209.189,101.702 209.522,117.869 210.5,134C 210.355,134.772 210.022,135.439 209.5,136C 205.833,136.667 202.167,136.667 198.5,136C 198.043,135.586 197.709,135.086 197.5,134.5C 198.485,118.214 198.818,101.881 198.5,85.5C 194.429,85.2338 190.429,85.5672 186.5,86.5C 184.296,85.218 183.962,83.5514 185.5,81.5 Z"/></g>
<g><path style="opacity:0.938" fill="#52b1ba" d="M 310.5,81.5 C 319.559,81.1541 328.559,81.6541 337.5,83C 349.111,86.7635 352.944,94.5968 349,106.5C 346.918,109.959 344.085,112.626 340.5,114.5C 343.833,121.167 347.167,127.833 350.5,134.5C 350.291,135.086 349.957,135.586 349.5,136C 346.167,136.667 342.833,136.667 339.5,136C 336.039,129.578 332.706,123.078 329.5,116.5C 326.914,115.52 324.247,115.187 321.5,115.5C 321.666,122.175 321.5,128.842 321,135.5C 317.333,136.833 313.667,136.833 310,135.5C 309.181,117.426 309.348,99.4264 310.5,81.5 Z M 321.5,85.5 C 323.5,85.5 325.5,85.5 327.5,85.5C 331.111,85.7855 333.944,87.4522 336,90.5C 337.476,95.0759 337.81,99.7426 337,104.5C 336.654,106.848 335.487,108.681 333.5,110C 329.605,111.266 325.605,111.766 321.5,111.5C 321.5,102.833 321.5,94.1667 321.5,85.5 Z"/></g>
<g><path style="opacity:0.988" fill="#53b5be" d="M 327.5,85.5 C 325.5,85.5 323.5,85.5 321.5,85.5C 321.19,84.2617 320.69,84.2617 320,85.5C 319.5,94.4938 319.334,103.494 319.5,112.5C 322.85,112.335 326.183,112.502 329.5,113C 326.833,113.333 324.167,113.667 321.5,114C 321,114.5 320.5,115 320,115.5C 319.5,121.825 319.334,128.158 319.5,134.5C 316.5,134.5 313.5,134.5 310.5,134.5C 310.5,117.5 310.5,100.5 310.5,83.5C 316.598,82.8833 322.265,83.55 327.5,85.5 Z"/></g>
<g><path style="opacity:0.995" fill="#52b1b9" d="M 416.5,81.5 C 427.505,81.3335 438.505,81.5002 449.5,82C 450.93,83.8803 450.596,85.3803 448.5,86.5C 441.892,85.5383 435.226,85.2049 428.5,85.5C 428.5,92.1667 428.5,98.8333 428.5,105.5C 432.571,105.766 436.571,105.433 440.5,104.5C 443.167,106.5 443.167,108.5 440.5,110.5C 436.571,109.567 432.571,109.234 428.5,109.5C 428.5,117.167 428.5,124.833 428.5,132.5C 435.558,132.797 442.558,132.464 449.5,131.5C 452.079,132.888 452.079,134.388 449.5,136C 438.257,136.82 427.09,136.653 416,135.5C 416.456,117.47 416.622,99.4702 416.5,81.5 Z"/></g>
<g><path style="opacity:0.333" fill="#489ca5" d="M 473.5,82.5 C 474.153,91.0915 474.486,99.7582 474.5,108.5C 474.498,117.194 473.831,125.528 472.5,133.5C 472.17,116.325 472.503,99.3251 473.5,82.5 Z"/></g>
<g><path style="opacity:0.443" fill="#376070" d="M 51.5,85.5 C 53.4684,90.6977 55.1351,96.031 56.5,101.5C 56.2528,102.713 55.5862,103.38 54.5,103.5C 44.9435,97.9469 36.9435,90.6135 30.5,81.5C 30.6236,80.8933 30.9569,80.56 31.5,80.5C 37.5191,89.0169 45.0191,96.0169 54,101.5C 52.5554,91.2755 48.3888,82.2755 41.5,74.5C 41.4346,74.0618 41.6012,73.7284 42,73.5C 45.4113,77.3994 48.5779,81.3994 51.5,85.5 Z"/></g>
<g><path style="opacity:0.17" fill="#111e25" d="M 127.5,85.5 C 128.5,85.8333 129.167,86.5 129.5,87.5C 129.5,88.1667 129.167,88.5 128.5,88.5C 127.5,88.1667 126.833,87.5 126.5,86.5C 126.5,85.8333 126.833,85.5 127.5,85.5 Z"/></g>
<g><path style="opacity:0.11" fill="#abbac2" d="M 26.5,91.5 C 27.9063,91.9731 28.573,92.9731 28.5,94.5C 27.0937,94.0269 26.427,93.0269 26.5,91.5 Z"/></g>
<g><path style="opacity:0.994" fill="#477f91" d="M 31.5,80.5 C 30.9569,80.56 30.6236,80.8933 30.5,81.5C 36.9435,90.6135 44.9435,97.9469 54.5,103.5C 59.6332,106.235 64.6332,109.235 69.5,112.5C 68.7611,112.369 68.0944,112.536 67.5,113C 74.3301,118.058 80.6634,123.558 86.5,129.5C 86.5,129.833 86.5,130.167 86.5,130.5C 82.9523,128.559 79.2857,126.893 75.5,125.5C 75.6309,124.624 75.2975,123.957 74.5,123.5C 69.4448,121.312 64.7781,118.645 60.5,115.5C 59.9717,114.279 59.305,113.113 58.5,112C 43.9573,99.6161 29.6239,87.1161 15.5,74.5C 17.0556,72.0118 19.3889,71.0118 22.5,71.5C 27.1696,71.5833 31.503,72.7499 35.5,75C 32.7854,75.8747 31.4521,77.7081 31.5,80.5 Z"/></g>
<g><path style="opacity:1" fill="#457589" d="M 51.5,85.5 C 61.3329,91.8112 71.3329,97.9779 81.5,104C 82.5,104.667 83.5,104.667 84.5,104C 85.9884,101.912 87.655,101.078 89.5,101.5C 84.4126,105.253 80.4126,109.919 77.5,115.5C 75.0625,115.008 72.3959,114.008 69.5,112.5C 64.6332,109.235 59.6332,106.235 54.5,103.5C 55.5862,103.38 56.2528,102.713 56.5,101.5C 55.1351,96.031 53.4684,90.6977 51.5,85.5 Z"/></g>
<g><path style="opacity:0.824" fill="#446c82" d="M 15.5,74.5 C 29.6239,87.1161 43.9573,99.6161 58.5,112C 59.305,113.113 59.9717,114.279 60.5,115.5C 58.5742,114.758 56.7409,113.758 55,112.5C 54.6012,112.728 54.4346,113.062 54.5,113.5C 45.368,107.621 36.7013,101.287 28.5,94.5C 28.573,92.9731 27.9063,91.9731 26.5,91.5C 20.6038,87.6019 16.6038,82.2685 14.5,75.5C 14.6236,74.8933 14.9569,74.56 15.5,74.5 Z"/></g>
<g><path style="opacity:0.22" fill="#2c4a59" d="M 60.5,115.5 C 64.7781,118.645 69.4448,121.312 74.5,123.5C 75.2975,123.957 75.6309,124.624 75.5,125.5C 67.6774,122.761 60.6774,118.761 54.5,113.5C 54.4346,113.062 54.6012,112.728 55,112.5C 56.7409,113.758 58.5742,114.758 60.5,115.5 Z"/></g>
<g><path style="opacity:0.927" fill="#3b4965" d="M 44.5,132.5 C 44.4905,140.578 47.9905,142.245 55,137.5C 55.3988,137.728 55.5654,138.062 55.5,138.5C 43.1678,147.264 29.8345,149.097 15.5,144C 7.82971,138.816 4.99638,131.649 7,122.5C 7.80614,119.554 9.13947,116.888 11,114.5C 16.0318,109.133 21.3651,104.133 27,99.5C 27.5,100 28,100.5 28.5,101C 23.1192,106.716 18.9525,113.216 16,120.5C 15.8705,131.038 21.2038,136.371 32,136.5C 36.5411,136.264 40.7078,134.93 44.5,132.5 Z"/></g>
<g><path style="opacity:1" fill="#4da0ab" d="M 69.5,112.5 C 72.3959,114.008 75.0625,115.008 77.5,115.5C 82.4228,117.914 87.4228,119.914 92.5,121.5C 91.6971,122.423 91.5304,123.423 92,124.5C 95.2576,126.88 98.4242,129.38 101.5,132C 104.482,132.498 107.482,132.665 110.5,132.5C 110.425,127.222 108.258,122.888 104,119.5C 102.499,121.584 100.499,122.917 98,123.5C 96.9701,123.164 96.4701,122.497 96.5,121.5C 100.676,122.169 102.009,120.669 100.5,117C 101.275,115.77 102.275,115.437 103.5,116C 106,119.167 108.5,122.333 111,125.5C 114.106,132.233 111.939,135.233 104.5,134.5C 99.0805,133.915 93.7472,132.915 88.5,131.5C 88.1667,130.5 87.5,129.833 86.5,129.5C 80.6634,123.558 74.3301,118.058 67.5,113C 68.0944,112.536 68.7611,112.369 69.5,112.5 Z"/></g>
<g><path style="opacity:0.986" fill="#53b4bd" d="M 92.5,121.5 C 93.8333,121.5 95.1667,121.5 96.5,121.5C 96.4701,122.497 96.9701,123.164 98,123.5C 100.499,122.917 102.499,121.584 104,119.5C 108.258,122.888 110.425,127.222 110.5,132.5C 107.482,132.665 104.482,132.498 101.5,132C 98.4242,129.38 95.2576,126.88 92,124.5C 91.5304,123.423 91.6971,122.423 92.5,121.5 Z"/></g>
<g><path style="opacity:0.231" fill="#14222a" d="M 86.5,129.5 C 87.5,129.833 88.1667,130.5 88.5,131.5C 88.0478,134.674 87.0478,135.007 85.5,132.5C 85.8627,131.817 86.1961,131.15 86.5,130.5C 86.5,130.167 86.5,129.833 86.5,129.5 Z"/></g>
<g><path style="opacity:0.988" fill="#3e5770" d="M 55.5,138.5 C 55.5654,138.062 55.3988,137.728 55,137.5C 47.9905,142.245 44.4905,140.578 44.5,132.5C 49.0067,128.812 52.1734,124.145 54,118.5C 55.0495,117.483 56.2161,117.316 57.5,118C 61.0066,120.254 64.6733,122.254 68.5,124C 69.0219,124.561 69.3552,125.228 69.5,126C 65.3231,130.675 60.6564,134.841 55.5,138.5 Z"/></g>
</svg>
